<?xml version="1.0" encoding="UTF-8"?>
<svg width="270px" height="240px" viewBox="0 0 270 240" version="1.1" xmlns="http://www.w3.org/2000/svg" xmlns:xlink="http://www.w3.org/1999/xlink">
    <!-- Generator: Sketch 41.2 (35397) - http://www.bohemiancoding.com/sketch -->
    <title>parro</title>
    <desc>Created with Sketch.</desc>
    <defs>
        <linearGradient x1="50%" y1="0%" x2="100%" y2="2.67977843%" id="linearGradient-1">
            <stop stop-color="#03A272" offset="0%"></stop>
            <stop stop-color="#09C8A4" offset="0%"></stop>
            <stop stop-color="#09C6A1" offset="0%"></stop>
            <stop stop-color="#049A6C" offset="100%"></stop>
        </linearGradient>
    </defs>
    <g id="Page-1" stroke="none" stroke-width="1" fill="none" fill-rule="evenodd">
        <g id="parro">
            <path d="M236.298387,79.234375 C236.298387,47.5276212 205.653933,16 174,16 L174,79.234375 C193.104839,79.234375 214.701613,79.234375 236.298387,79.234375 Z" id="top" fill="#FCB400"></path>
            <path d="M207.496736,113 C207.496736,95.9518418 191.019758,79 174,79 L174,113 C184.272332,113 195.884534,113 207.496736,113 Z" id="bottom" fill="#F1A227" transform="translate(190.748368, 96.000000) scale(1, -1) translate(-190.748368, -96.000000) "></path>
            <ellipse id="eye" fill="#3A3A3A" cx="155.766129" cy="61.4257812" rx="14.1209677" ry="14.1445312"></ellipse>
            <path d="M174.195535,112.999064 C173.906098,119.982401 171.196355,135.945298 155.766129,162.101562 C134.169355,198.710938 84.3306452,191.222656 84.3306452,191.222656 C84.3306452,191.222656 85.1612903,202.039063 76.0241935,216.183594 C66.8870968,230.328125 41.9677419,224.503906 41.9677419,224.503906 L73.5322581,146.292969 C73.5322581,146.292969 70.6451613,148.4375 61.0725806,140.46875 C51.5,132.5 51.1048387,124.660156 51.1048387,124.660156 L68.5483871,125.492187 C68.5483871,125.492187 65.2096774,125.695312 51.1048387,111.347656 C37,97 32,80.5625 32,80.5625 L51.1048387,82.2265625 C51.1048387,82.2265625 42.5516138,71.9610128 40.3064516,65.5859375 C32,42 33.6612903,23.984375 33.6612903,23.984375 L105.096774,63.921875 C105.096774,63.921875 105.516129,54.6523438 110.5,45.5 C115.483871,36.3476562 122.5,27.5 142.5,20 C156.460133,14.7649502 174,16 174,16 C174,16 173.991646,16.000919 173.975224,16.0027805 C147.431154,16.2841807 126,37.8893332 126,64.5 C126,91.1842488 147.549838,112.835263 174.195535,112.999064 L174.195535,112.999064 Z" id="Combined-Shape" fill="#01A674"></path>
            <path d="M158.5,111 C158.5,111 148,133 119.5,140 C91,147 73.5,146.5 73.5,146.5 L65.5,167 C65.5,167 110,168.5 129,156 C148,143.5 158.5,111 158.5,111 Z" id="shadow" fill="url(#linearGradient-1)"></path>
        </g>
    </g>
</svg>